<?xml version="1.0" encoding="iso-8859-1"?>
<!-- Generator: Adobe Illustrator 19.0.0, SVG Export Plug-In . SVG Version: 6.00 Build 0)  -->
<svg xmlns="http://www.w3.org/2000/svg" xmlns:xlink="http://www.w3.org/1999/xlink" version="1.1" id="Layer_1" x="0px" y="0px" viewBox="0 0 550 500" style="enable-background:new 0 0 512 512;" xml:space="preserve" width="32px" height="32px">
<g>
	<g>
		<g>
			<path d="M341.333,128c11.776,0,21.333-9.557,21.333-21.333s-9.557-21.333-21.333-21.333c-11.776,0-21.333,9.557-21.333,21.333     S329.557,128,341.333,128z" fill="#0177f4"/>
			<path d="M497.536,159.872c0.085-0.085,0.149-0.149,0.235-0.235C506.837,151.509,512,140.032,512,128     c0-23.531-19.136-42.667-42.667-42.667h-29.824c-2.325-2.368-6.507-8.491-9.963-13.525C412.373,46.72,380.416,0,320,0     c-83.52,0-128,68.139-128,117.333c0,33.835,22.805,71.509,35.989,90.475c-10.197,2.645-26.091,5.525-46.656,5.525     c-39.936,0-69.099-4.139-108.651-59.52c-1.643-2.304-4.16-3.883-6.976-4.331s-5.675,0.213-7.979,1.899     C23.083,176.555,0,207.616,0,277.333C0,347.904,27.029,512,277.333,512c213.205,0,224-142.165,224-170.645     c0-52.245-48.277-112.917-68.757-136.299C450.581,193.941,485.184,171.947,497.536,159.872z M480,341.333     c0,35.029-14.613,149.333-202.667,149.333c-231.061,0-256-149.184-256-213.333c0-59.776,18.987-84.843,40.533-102.293     c42.368,55.061,77.909,59.627,119.467,59.627c42.496,0,67.392-11.157,68.437-11.627c3.008-1.365,5.184-4.053,5.952-7.253     c0.747-3.221-0.021-6.592-2.091-9.152c-0.405-0.533-40.299-50.304-40.299-89.301c0-40.277,37.077-96,106.667-96     c49.173,0,74.901,37.632,91.925,62.528c9.749,14.229,15.616,22.805,25.408,22.805h32c11.755,0,21.333,9.579,21.333,21.333     c0,6.101-2.752,11.968-7.552,16.085c-0.363,0.32-0.725,0.683-1.045,1.045c-13.013,12.309-55.915,38.997-71.552,48.384     c-2.795,1.664-4.672,4.523-5.099,7.744c-0.427,3.221,0.64,6.464,2.901,8.811C409.045,210.816,480,285.056,480,341.333z" fill="#0177f4"/>
			<path d="M309.355,277.333c-10.389,0-21.483,1.941-34.325,4.181c-17.344,3.051-36.992,6.485-61.675,6.485     c-35.968,0-62.891-7.509-69.568-9.557c-0.981-0.491-2.048-0.832-3.328-1.024c-3.392-0.555-6.933,0.661-9.323,3.051     c-2.603,2.581-3.691,6.336-2.859,9.92c0.469,2.069,1.536,3.904,3.029,5.312c0.491,0.917,1.109,2.155,1.899,3.648     C169.707,369.664,221.781,405.333,288,405.333c41.173,0,74.667-33.493,74.688-74.667     C362.688,301.269,338.752,277.333,309.355,277.333z M288,384c-72.576,0-110.272-49.685-127.787-79.637     c13.525,2.581,31.787,4.971,53.12,4.971c26.539,0,48.043-3.755,65.344-6.784c11.861-2.112,22.123-3.883,30.656-3.883     c17.643,0,32,14.357,32,32C341.333,360.064,317.397,384,288,384z" fill="#0177f4"/>
		</g>
	</g>
</g>
<g>
</g>
<g>
</g>
<g>
</g>
<g>
</g>
<g>
</g>
<g>
</g>
<g>
</g>
<g>
</g>
<g>
</g>
<g>
</g>
<g>
</g>
<g>
</g>
<g>
</g>
<g>
</g>
<g>
</g>
</svg>
